{
    "accessors" : [
        {
            "bufferView" : 0,
            "componentType" : 5123,
            "count" : 2880,
            "max" : [
                498
            ],
            "min" : [
                0
            ],
            "type" : "SCALAR"
        },
        {
            "bufferView" : 1,
            "componentType" : 5126,
            "count" : 499,
            "max" : [
                1.000000238418579,
                1.0,
                1.0000003576278687
            ],
            "min" : [
                -0.9999998211860657,
                -1.0,
                -0.9999991655349731
            ],
            "type" : "VEC3"
        },
        {
            "bufferView" : 2,
            "componentType" : 5126,
            "count" : 499,
            "max" : [
                1.0,
                1.0,
                1.0
            ],
            "min" : [
                -1.0,
                -1.0,
                -1.0
            ],
            "type" : "VEC3"
        },
        {
            "bufferView" : 3,
            "componentType" : 5126,
            "count" : 499,
            "max" : [
                0.9462845921516418,
                0.4612925350666046,
                0.9659261107444763,
                1.0
            ],
            "min" : [
                -0.9462844729423523,
                -0.46129319071769714,
                -0.952521800994873,
                1.0
            ],
            "type" : "VEC4"
        },
        {
            "bufferView" : 4,
            "componentType" : 5126,
            "count" : 499,
            "max" : [
                1.3865225315093994,
                0.9777659177780151
            ],
            "min" : [
                1.1920928955078125e-07,
                0.022234320640563965
            ],
            "type" : "VEC2"
        },
        {
            "bufferView" : 5,
            "componentType" : 5126,
            "count" : 5,
            "max" : [
                2.0
            ],
            "min" : [
                0.0
            ],
            "type" : "SCALAR"
        },
        {
            "bufferView" : 6,
            "componentType" : 5126,
            "count" : 5,
            "max" : [
                0.0,
                1.0,
                -0.0,
                1.0
            ],
            "min" : [
                0.0,
                -0.7071068286895752,
                -0.0,
                -4.371138828673793e-08
            ],
            "type" : "VEC4"
        }
    ],
    "animations" : [
        {
            "channels" : [
                {
                    "sampler" : 0,
                    "target" : {
                        "node" : 2,
                        "path" : "rotation"
                    }
                }
            ],
            "name" : "OrbitAction",
            "samplers" : [
                {
                    "input" : 5,
                    "interpolation" : "LINEAR",
                    "output" : 6
                }
            ]
        }
    ],
    "asset" : {
        "generator" : "Khronos Blender glTF 2.0 exporter",
        "version" : "2.0"
    },
    "bufferViews" : [
        {
            "buffer" : 0,
            "byteLength" : 5760,
            "byteOffset" : 0,
            "target" : 34963
        },
        {
            "buffer" : 0,
            "byteLength" : 5988,
            "byteOffset" : 5760,
            "target" : 34962
        },
        {
            "buffer" : 0,
            "byteLength" : 5988,
            "byteOffset" : 11748,
            "target" : 34962
        },
        {
            "buffer" : 0,
            "byteLength" : 7984,
            "byteOffset" : 17736,
            "target" : 34962
        },
        {
            "buffer" : 0,
            "byteLength" : 3992,
            "byteOffset" : 25720,
            "target" : 34962
        },
        {
            "buffer" : 0,
            "byteLength" : 20,
            "byteOffset" : 29712
        },
        {
            "buffer" : 0,
            "byteLength" : 80,
            "byteOffset" : 29732
        }
    ],
    "buffers" : [
        {
            "byteLength" : 29812,
            "uri" : "glTF2_Principled.bin"
        }
    ],
    "images" : [
        {
            "name" : "Default_metalRoughness",
            "uri" : "Default_metalRoughness.jpg"
        },
        {
            "name" : "Default_normal",
            "uri" : "Default_normal.jpg"
        }
    ],
    "materials" : [
        {
            "name" : "Metallic_Sphere",
            "normalTexture" : {
                "index" : 1,
                "scale" : 1.4000005722045898
            },
            "pbrMetallicRoughness" : {
                "metallicRoughnessTexture" : {
                    "index" : 0
                },
                "roughnessFactor" : 0.2454545497894287
            }
        }
    ],
    "meshes" : [
        {
            "name" : "Metallic_Sphere",
            "primitives" : [
                {
                    "attributes" : {
                        "NORMAL" : 2,
                        "POSITION" : 1,
                        "TANGENT" : 3,
                        "TEXCOORD_0" : 4
                    },
                    "indices" : 0,
                    "material" : 0
                }
            ]
        }
    ],
    "nodes" : [
        {
            "name" : "Camera",
            "rotation" : [
                0.483536034822464,
                0.33687159419059753,
                -0.20870360732078552,
                0.7804827094078064
            ],
            "translation" : [
                7.481131553649902,
                5.34366512298584,
                6.5076398849487305
            ]
        },
        {
            "mesh" : 0,
            "name" : "Metallic_Sphere"
        },
        {
            "children" : [
                3
            ],
            "name" : "Orbit"
        },
        {
            "name" : "Point",
            "translation" : [
                4.0,
                0.0,
                -0.0
            ]
        },
        {
            "name" : "Spot",
            "translation" : [
                -4.0,
                4.0,
                -0.0
            ]
        }
    ],
    "samplers" : [
        {}
    ],
    "scene" : 0,
    "scenes" : [
        {
            "name" : "Scene",
            "nodes" : [
                4,
                2,
                1,
                0
            ]
        }
    ],
    "textures" : [
        {
            "sampler" : 0,
            "source" : 0
        },
        {
            "sampler" : 0,
            "source" : 1
        }
    ]
}
